<svg xmlns="http://www.w3.org/2000/svg" xmlns:xlink="http://www.w3.org/1999/xlink" width="500" zoomAndPan="magnify" viewBox="0 0 375 374.999991" height="500" preserveAspectRatio="xMidYMid meet" version="1.0"><defs><clipPath id="d4513ef7c4"><path d="M 140.675781 133.976562 L 234.320312 133.976562 L 234.320312 241 L 140.675781 241 Z M 140.675781 133.976562 " clip-rule="nonzero"/></clipPath></defs><g clip-path="url(#d4513ef7c4)"><path fill="#1893f8" d="M 234.328125 147.984375 C 235.058594 167.453125 231.574219 184.90625 223.878906 200.34375 C 223.394531 201.351562 222.898438 202.351562 222.382812 203.339844 C 218.566406 210.691406 213.925781 217.441406 208.609375 223.421875 C 203.292969 229.40625 197.292969 234.625 190.757812 238.917969 L 187.722656 240.914062 C 187.566406 241.019531 187.351562 241.03125 187.183594 240.917969 L 184.136719 238.917969 C 177.605469 234.625 171.605469 229.40625 166.289062 223.421875 C 160.96875 217.441406 156.328125 210.691406 152.511719 203.339844 C 148.605469 195.816406 145.621094 187.746094 143.613281 179.363281 C 141.601562 170.980469 140.570312 162.289062 140.570312 153.527344 L 140.570312 147.980469 C 140.570312 147.710938 140.785156 147.496094 141.054688 147.496094 L 146.601562 147.496094 C 153.195312 147.496094 159.738281 146.507812 166.046875 144.589844 C 172.363281 142.667969 178.453125 139.8125 184.136719 136.078125 L 187.175781 134.082031 C 187.332031 133.976562 187.546875 133.964844 187.714844 134.078125 L 190.761719 136.078125 C 196.445312 139.8125 202.535156 142.667969 208.851562 144.589844 C 215.160156 146.507812 221.703125 147.496094 228.296875 147.496094 L 233.84375 147.496094 C 234.113281 147.496094 234.332031 147.710938 234.332031 147.980469 Z M 197.363281 202.609375 C 197.4375 201.253906 195.261719 189.097656 194.753906 186.160156 C 194.664062 185.640625 194.304688 183.867188 194.34375 183.492188 C 194.417969 182.71875 199.128906 178.023438 195.289062 171.40625 C 195.042969 170.984375 195.078125 171.027344 194.96875 170.941406 C 193.199219 168.410156 190.277344 166.746094 186.960938 166.703125 L 186.960938 161.804688 L 186.964844 161.804688 C 186.964844 161.710938 186.992188 161.617188 187.046875 161.53125 C 187.199219 161.308594 187.503906 161.253906 187.726562 161.402344 C 187.742188 161.414062 192.714844 165.035156 215.664062 159.09375 C 210.660156 158.523438 206.371094 157.417969 202.214844 155.808594 C 197.410156 153.945312 192.792969 151.410156 187.453125 148.226562 C 182.070312 151.414062 176.410156 153.957031 170.570312 155.816406 C 164.785156 157.660156 158.832031 158.835938 152.804688 159.3125 C 153.605469 172.960938 157.226562 186.042969 163.164062 197.574219 C 169.011719 208.929688 177.105469 218.773438 186.964844 226.167969 L 186.964844 202.621094 Z M 197.363281 202.609375 " fill-opacity="1" fill-rule="evenodd"/></g><path fill="#56aeff" d="M 186.960938 166.703125 L 186.960938 202.625 L 176.5625 202.636719 C 176.453125 200.695312 178.730469 189.503906 179.214844 185.964844 C 179.292969 185.378906 179.671875 183.78125 179.574219 183.347656 C 177.933594 181.582031 176.929688 179.210938 176.929688 176.609375 C 176.929688 171.136719 181.367188 166.703125 186.839844 166.703125 C 186.878906 166.703125 186.921875 166.703125 186.960938 166.703125 Z M 186.960938 166.703125 " fill-opacity="1" fill-rule="evenodd"/></svg>